<?xml version="1.0" encoding="UTF-8" standalone="no"?>
<!-- Generator: Adobe Illustrator 19.0.0, SVG Export Plug-In . SVG Version: 6.00 Build 0)  -->

<svg
   xmlns:dc="http://purl.org/dc/elements/1.1/"
   xmlns:cc="http://creativecommons.org/ns#"
   xmlns:rdf="http://www.w3.org/1999/02/22-rdf-syntax-ns#"
   xmlns:svg="http://www.w3.org/2000/svg"
   xmlns="http://www.w3.org/2000/svg"
   xmlns:sodipodi="http://sodipodi.sourceforge.net/DTD/sodipodi-0.dtd"
   xmlns:inkscape="http://www.inkscape.org/namespaces/inkscape"
   version="1.1"
   id="Camada_1"
   x="0px"
   y="0px"
   viewBox="0 0 110 110"
   xml:space="preserve"
   inkscape:version="0.91 r13725"
   sodipodi:docname="logo.svg"
   width="110"
   height="110"
   inkscape:export-filename="D:\Projetos\rss-task-app1\images\logo.png"
   inkscape:export-xdpi="90"
   inkscape:export-ydpi="90"><metadata
     id="metadata107"><rdf:RDF><cc:Work
         rdf:about=""><dc:format>image/svg+xml</dc:format><dc:type
           rdf:resource="http://purl.org/dc/dcmitype/StillImage" /><dc:title></dc:title></cc:Work></rdf:RDF></metadata><defs
     id="defs105" /><sodipodi:namedview
     pagecolor="#ffffff"
     bordercolor="#666666"
     borderopacity="1"
     objecttolerance="10"
     gridtolerance="10"
     guidetolerance="10"
     inkscape:pageopacity="0"
     inkscape:pageshadow="2"
     inkscape:window-width="1920"
     inkscape:window-height="1017"
     id="namedview103"
     showgrid="false"
     inkscape:zoom="1.0198331"
     inkscape:cx="128.49147"
     inkscape:cy="82.49194"
     inkscape:window-x="-8"
     inkscape:window-y="-8"
     inkscape:window-maximized="1"
     inkscape:current-layer="g5" /><style
     type="text/css"
     id="style3">
	.st0{fill-rule:evenodd;clip-rule:evenodd;fill:#5B5B5F;}
	.st1{fill:#5B5B5F;}
	.st2{fill:#3A6FA5;}
	.st3{fill:#B0BF46;}
	.st4{fill:#AEADB3;}
</style><g
     id="g5"
     transform="translate(-183.36333,-131.02817)"><g
       id="g9"
       transform="translate(-196.11052,2.9416578)"><g
         id="g11"><g
           id="g13"><polygon
             class="st1"
             points="472.1,226.3 431.7,190.3 432,187.4 472.4,223.4 "
             id="polygon15"
             style="fill:#5b5b5f" /></g><g
           id="g17"><polygon
             class="st1"
             points="437.2,222 430.4,189.1 433.3,188.6 440,221.6 "
             id="polygon19"
             style="fill:#5b5b5f" /></g><g
           id="g21"><polygon
             class="st1"
             points="405.2,221.8 403.7,219.4 431.1,187.6 432.6,190.1 "
             id="polygon23"
             style="fill:#5b5b5f" /></g><g
           id="g25"><polygon
             class="st1"
             points="430.7,189.7 394,144.5 396.3,142.8 433,188 "
             id="polygon27"
             style="fill:#5b5b5f" /></g><g
           id="g29"><polygon
             class="st1"
             points="433,189.7 430.7,188 452.1,155.4 454.3,157.1 "
             id="polygon31"
             style="fill:#5b5b5f" /></g></g><g
         id="g33"><g
           id="g35"><path
             class="st2"
             d="m 413.9,189.9 c -0.6,-9.9 7,-18.5 16.9,-19 9.9,-0.6 18.5,7 19.1,16.9 0.6,9.9 -7,18.5 -16.9,19 -10,0.6 -18.5,-7 -19.1,-16.9 z"
             id="path37"
             inkscape:connector-curvature="0"
             style="fill:#3a6fa5" /></g></g><g
         id="g39"><path
           class="st3"
           d="m 459.6,225.6 c -0.4,-7 4.9,-12.9 11.8,-13.4 7,-0.4 12.9,4.9 13.4,11.8 0.4,7 -4.9,12.9 -11.9,13.4 -6.9,0.5 -12.8,-4.8 -13.3,-11.8 z"
           id="path41"
           inkscape:connector-curvature="0"
           style="fill:#b0bf46" /></g><g
         id="g43"><path
           class="st3"
           d="m 391.9,221.3 c -0.4,-7 4.9,-12.9 11.8,-13.3 7,-0.4 12.9,4.9 13.4,11.8 0.4,7 -4.9,12.9 -11.8,13.3 -7,0.5 -13,-4.8 -13.4,-11.8 z"
           id="path45"
           inkscape:connector-curvature="0"
           style="fill:#b0bf46" /></g><g
         id="g47"><path
           class="st3"
           d="m 382.5,144.4 c -0.4,-7 4.9,-12.9 11.8,-13.3 7,-0.4 12.9,4.9 13.4,11.8 0.4,7 -4.9,12.9 -11.8,13.3 -7,0.4 -12.9,-4.9 -13.4,-11.8 z"
           id="path49"
           inkscape:connector-curvature="0"
           style="fill:#b0bf46" /></g><g
         id="g51"><path
           class="st3"
           d="m 440.6,157 c -0.4,-7 4.9,-12.9 11.8,-13.3 7,-0.4 12.9,4.9 13.3,11.8 0.4,7 -4.9,12.9 -11.8,13.4 C 447,169.3 441,164 440.6,157 Z"
           id="path53"
           inkscape:connector-curvature="0"
           style="fill:#b0bf46" /></g><g
         id="g55"><path
           class="st3"
           d="m 430.5,222.3 c -0.3,-4.5 3.1,-8.3 7.6,-8.6 4.5,-0.3 8.3,3.2 8.6,7.6 0.3,4.5 -3.1,8.3 -7.6,8.6 -4.5,0.3 -8.4,-3.1 -8.6,-7.6 z"
           id="path57"
           inkscape:connector-curvature="0"
           style="fill:#b0bf46" /></g></g></g></svg>