<?xml version="1.0" encoding="UTF-8" standalone="no"?>
<!-- Generator: Adobe Illustrator 19.0.0, SVG Export Plug-In . SVG Version: 6.00 Build 0)  -->

<svg
   version="1.1"
   id="Camada_1"
   x="0px"
   y="0px"
   viewBox="0 0 339.99999 112"
   xml:space="preserve"
   inkscape:version="1.1.2 (b8e25be833, 2022-02-05)"
   sodipodi:docname="logo.svg"
   width="340"
   height="112"
   xmlns:inkscape="http://www.inkscape.org/namespaces/inkscape"
   xmlns:sodipodi="http://sodipodi.sourceforge.net/DTD/sodipodi-0.dtd"
   xmlns="http://www.w3.org/2000/svg"
   xmlns:svg="http://www.w3.org/2000/svg"
   xmlns:rdf="http://www.w3.org/1999/02/22-rdf-syntax-ns#"
   xmlns:cc="http://creativecommons.org/ns#"
   xmlns:dc="http://purl.org/dc/elements/1.1/"><metadata
     id="metadata107"><rdf:RDF><cc:Work
         rdf:about=""><dc:format>image/svg+xml</dc:format><dc:type
           rdf:resource="http://purl.org/dc/dcmitype/StillImage" /></cc:Work></rdf:RDF></metadata><defs
     id="defs105" /><sodipodi:namedview
     pagecolor="#ffffff"
     bordercolor="#666666"
     borderopacity="1"
     objecttolerance="10"
     gridtolerance="10"
     guidetolerance="10"
     inkscape:pageopacity="0"
     inkscape:pageshadow="2"
     inkscape:window-width="1920"
     inkscape:window-height="1017"
     id="namedview103"
     showgrid="false"
     inkscape:zoom="2.8845236"
     inkscape:cx="211.4734"
     inkscape:cy="76.615771"
     inkscape:window-x="-8"
     inkscape:window-y="-8"
     inkscape:window-maximized="1"
     inkscape:current-layer="g5"
     inkscape:pagecheckerboard="0" /><style
     type="text/css"
     id="style3">
	.st0{fill-rule:evenodd;clip-rule:evenodd;fill:#5B5B5F;}
	.st1{fill:#5B5B5F;}
	.st2{fill:#3A6FA5;}
	.st3{fill:#B0BF46;}
	.st4{fill:#AEADB3;}
</style><g
     id="g5"
     transform="translate(-183.36333,-129.02817)"><g
       id="g9"
       transform="translate(-51.322912,0.49966948)"><g
         id="g11"><g
           id="g13"><polygon
             class="st1"
             points="432,187.4 472.4,223.4 472.1,226.3 431.7,190.3 "
             id="polygon15"
             style="fill:#5b5b5f" /></g><g
           id="g17"><polygon
             class="st1"
             points="433.3,188.6 440,221.6 437.2,222 430.4,189.1 "
             id="polygon19"
             style="fill:#5b5b5f" /></g><g
           id="g21"><polygon
             class="st1"
             points="431.1,187.6 432.6,190.1 405.2,221.8 403.7,219.4 "
             id="polygon23"
             style="fill:#5b5b5f" /></g><g
           id="g25"><polygon
             class="st1"
             points="396.3,142.8 433,188 430.7,189.7 394,144.5 "
             id="polygon27"
             style="fill:#5b5b5f" /></g><g
           id="g29"><polygon
             class="st1"
             points="452.1,155.4 454.3,157.1 433,189.7 430.7,188 "
             id="polygon31"
             style="fill:#5b5b5f" /></g></g><g
         id="g33"><g
           id="g35"><path
             class="st2"
             d="m 413.9,189.9 c -0.6,-9.9 7,-18.5 16.9,-19 9.9,-0.6 18.5,7 19.1,16.9 0.6,9.9 -7,18.5 -16.9,19 -10,0.6 -18.5,-7 -19.1,-16.9 z"
             id="path37"
             inkscape:connector-curvature="0"
             style="fill:#3a6fa5" /></g></g><g
         id="g39"><path
           class="st3"
           d="m 459.6,225.6 c -0.4,-7 4.9,-12.9 11.8,-13.4 7,-0.4 12.9,4.9 13.4,11.8 0.4,7 -4.9,12.9 -11.9,13.4 -6.9,0.5 -12.8,-4.8 -13.3,-11.8 z"
           id="path41"
           inkscape:connector-curvature="0"
           style="fill:#b0bf46" /></g><g
         id="g43"><path
           class="st3"
           d="m 391.9,221.3 c -0.4,-7 4.9,-12.9 11.8,-13.3 7,-0.4 12.9,4.9 13.4,11.8 0.4,7 -4.9,12.9 -11.8,13.3 -7,0.5 -13,-4.8 -13.4,-11.8 z"
           id="path45"
           inkscape:connector-curvature="0"
           style="fill:#b0bf46" /></g><g
         id="g47"><path
           class="st3"
           d="m 382.5,144.4 c -0.4,-7 4.9,-12.9 11.8,-13.3 7,-0.4 12.9,4.9 13.4,11.8 0.4,7 -4.9,12.9 -11.8,13.3 -7,0.4 -12.9,-4.9 -13.4,-11.8 z"
           id="path49"
           inkscape:connector-curvature="0"
           style="fill:#b0bf46" /></g><g
         id="g51"><path
           class="st3"
           d="m 440.6,157 c -0.4,-7 4.9,-12.9 11.8,-13.3 7,-0.4 12.9,4.9 13.3,11.8 0.4,7 -4.9,12.9 -11.8,13.4 C 447,169.3 441,164 440.6,157 Z"
           id="path53"
           inkscape:connector-curvature="0"
           style="fill:#b0bf46" /></g><g
         id="g55"><path
           class="st3"
           d="m 430.5,222.3 c -0.3,-4.5 3.1,-8.3 7.6,-8.6 4.5,-0.3 8.3,3.2 8.6,7.6 0.3,4.5 -3.1,8.3 -7.6,8.6 -4.5,0.3 -8.4,-3.1 -8.6,-7.6 z"
           id="path57"
           inkscape:connector-curvature="0"
           style="fill:#b0bf46" /></g></g><g
       id="g83"
       style="fill:#b0bf46;fill-opacity:1"
       transform="translate(-50.122912,-14.100331)"><path
         class="st2"
         d="m 350.51362,172 h 18.3 c 2.5,0 4.7,0.3 6.6,0.7 1.9,0.5 3.6,1.4 4.9,2.6 1.4,1.2 2.5,2.9 3.2,5 0.8,2.1 1.1,4.8 1.1,8 0,3 -0.4,5.5 -1.2,7.6 -0.8,2.1 -1.9,3.8 -3.4,5 -1.5,1.2 -3.2,2.1 -5.2,2.7 -2,0.6 -4.2,0.8 -6.6,0.8 h -17.8 V 172 Z m 12.5,24.5 h 3.1 c 2.1,0 3.6,-0.7 4.4,-2 0.8,-1.4 1.2,-3.5 1.2,-6.4 0,-3 -0.4,-5.1 -1.2,-6.5 -0.8,-1.4 -2.3,-2 -4.4,-2 h -3.1 z"
         id="path95"
         inkscape:connector-curvature="0"
         style="fill:#b0bf46;fill-opacity:1" /><path
         class="st2"
         d="m 388.11362,172 h 20.2 c 4.1,0 7.2,0.7 9.4,2.1 2.2,1.4 3.2,3.6 3.2,6.6 0,2.4 -0.7,4.2 -2,5.6 -1.4,1.4 -3.3,2.4 -5.8,3 v 0.1 c 1.3,0.2 2.4,0.6 3.2,1.2 0.9,0.6 1.6,1.4 2.3,2.3 0.5,0.9 0.8,1.8 1.1,2.8 0.3,1 0.5,2.3 0.8,3.9 0.4,2.4 0.8,4 1.2,4.9 h -13 c -0.1,-0.6 -0.3,-1.7 -0.5,-3.5 -0.2,-1.6 -0.4,-2.8 -0.5,-3.7 -0.2,-0.9 -0.4,-1.7 -0.7,-2.2 -0.3,-0.7 -0.8,-1.1 -1.4,-1.4 -0.6,-0.2 -1.3,-0.3 -2.2,-0.3 h -2.8 v 11.1 h -12.5 z m 11.9,14.3 h 3.3 c 0.8,0 1.4,0 2,-0.1 0.6,-0.1 1.1,-0.2 1.5,-0.5 0.5,-0.2 0.8,-0.6 1.1,-1.1 0.3,-0.5 0.4,-1.1 0.4,-1.9 0,-1.3 -0.4,-2.2 -1.3,-2.7 -0.9,-0.4 -2.1,-0.7 -3.6,-0.7 h -3.4 z"
         id="path97"
         inkscape:connector-curvature="0"
         style="fill:#b0bf46;fill-opacity:1" /><path
         d="m 443.15931,200.04095 h 21.5 c 1.4,0 2.8,0.2 4.2,0.6 1.4,0.4 2.7,1 3.8,1.8 1.2,0.9 2.2,2 2.9,3.5 0.7,1.5 1.1,3.2 1.1,5.3 0,2.1 -0.3,3.9 -0.9,5.4 -0.6,1.5 -1.5,2.8 -2.6,3.7 -1.1,1 -2.4,1.7 -3.8,2.1 -1.4,0.5 -3,0.7 -4.7,0.7 h -9 v 9.4 h -12.5 z m 12.1,15.7 h 2.8 c 0.8,0 1.6,-0.1 2.3,-0.2 0.7,-0.1 1.3,-0.3 1.9,-0.6 0.6,-0.3 1,-0.7 1.3,-1.3 0.3,-0.6 0.5,-1.3 0.5,-2.1 0,-0.8 -0.2,-1.5 -0.5,-2 -0.3,-0.5 -0.8,-0.9 -1.3,-1.2 -0.6,-0.3 -1.2,-0.4 -1.9,-0.5 -0.7,-0.1 -1.5,-0.1 -2.4,-0.1 h -2.7 z m 51.3,-6.8 c -1.5,-0.5 -3,-0.9 -4.6,-1.2 -1.6,-0.3 -3.3,-0.4 -5,-0.4 h -1.9 c -0.5,0 -1.1,0.1 -1.6,0.3 -0.6,0.1 -1,0.4 -1.4,0.7 -0.3,0.3 -0.5,0.7 -0.5,1.2 0,0.7 0.4,1.2 1.2,1.5 0.8,0.3 2.1,0.7 4,1.1 1.7,0.3 3.2,0.7 4.5,1 1.2,0.3 2.4,0.9 3.6,1.6 1.2,0.7 2.1,1.7 2.8,2.9 0.7,1.2 1.1,2.8 1.1,4.7 0,2.1 -0.5,3.8 -1.4,5.3 -0.9,1.4 -2.2,2.6 -3.7,3.4 -1.5,0.8 -3.2,1.4 -5.1,1.7 -1.9,0.3 -3.8,0.5 -5.7,0.5 -2.4,0 -4.6,-0.1 -6.8,-0.4 -2.1,-0.2 -4.3,-0.6 -6.7,-1.2 v -8.4 c 1.6,0.7 3.5,1.2 5.4,1.6 2,0.4 3.9,0.6 5.8,0.6 1.6,0 3,-0.2 4,-0.5 1.1,-0.4 1.6,-0.9 1.6,-1.7 0,-0.7 -0.4,-1.3 -1.3,-1.6 -0.8,-0.3 -2.2,-0.7 -4.1,-1.1 -1.7,-0.3 -3.2,-0.7 -4.4,-1.1 -1.2,-0.4 -2.4,-0.9 -3.5,-1.6 -1.1,-0.7 -2.1,-1.7 -2.8,-3 -0.7,-1.3 -1.1,-2.8 -1.1,-4.7 0,-2.1 0.5,-3.9 1.5,-5.3 1,-1.4 2.3,-2.5 3.9,-3.3 1.6,-0.8 3.4,-1.3 5.3,-1.6 1.9,-0.3 3.9,-0.4 6,-0.4 1.7,0 3.5,0.1 5.4,0.3 1.9,0.2 3.7,0.5 5.4,0.8 v 8.3 z"
         style="fill:#b0bf46;fill-opacity:1"
         id="path12640" /></g><g
       aria-label="DATA"
       id="text6383"
       style="font-size:30.0587px;line-height:1.25;stroke-width:0.751466"
       transform="translate(-22.880728,-2.4267439)"><path
         d="m 298.9897,212.47182 q 0,2.97945 -1.30627,5.40117 -1.29158,2.42173 -3.44911,3.75734 -1.49707,0.92466 -3.34638,1.33562 -1.83464,0.41096 -4.84345,0.41096 h -5.51859 v -21.8542 h 5.45989 q 3.1996,0 5.07827,0.46966 1.89335,0.45499 3.19961,1.26223 2.23092,1.39433 3.47847,3.71331 1.24756,2.31898 1.24756,5.50391 z m -3.03816,-0.044 q 0,-2.56849 -0.89531,-4.32974 -0.8953,-1.76126 -2.67123,-2.77398 -1.29158,-0.73385 -2.74462,-1.01272 -1.45303,-0.29354 -3.47847,-0.29354 h -2.72994 v 16.86399 h 2.72994 q 2.09883,0 3.6546,-0.30822 1.57045,-0.30822 2.87671,-1.14481 1.62916,-1.04208 2.4364,-2.74462 0.82192,-1.70254 0.82192,-4.25636 z"
         style="font-family:SAPIcons;-inkscape-font-specification:SAPIcons"
         id="path15098" /><path
         d="m 320.91728,223.37691 h -3.09686 l -2.14286,-6.091 h -9.45205 l -2.14286,6.091 h -2.9501 l 7.95499,-21.8542 h 3.87476 z m -6.13502,-8.58611 -3.83073,-10.72896 -3.8454,10.72896 z"
         style="font-family:SAPIcons;-inkscape-font-specification:SAPIcons"
         id="path15100" /><path
         d="m 338.06014,204.10588 h -7.80822 v 19.27103 h -2.90607 v -19.27103 h -7.80821 v -2.58317 h 18.5225 z"
         style="font-family:SAPIcons;-inkscape-font-specification:SAPIcons"
         id="path15102" /><path
         d="m 356.46522,223.37691 h -3.09687 l -2.14286,-6.091 h -9.45205 l -2.14286,6.091 h -2.95009 l 7.95498,-21.8542 h 3.87476 z m -6.13503,-8.58611 -3.83072,-10.72896 -3.8454,10.72896 z"
         style="font-family:SAPIcons;-inkscape-font-specification:SAPIcons"
         id="path15104" /></g><path
       style="fill:#3a6fa5;fill-opacity:1;stroke-width:0.346678"
       d="m 278.69969,220.50835 c 0,-0.17798 6.6759,-18.6701 7.46259,-20.67126 0.18434,-0.46891 0.64339,-0.60593 2.02147,-0.60336 l 1.78297,0.003 2.71597,7.53692 c 1.49378,4.1453 3.24188,8.97996 3.88467,10.74369 l 1.16871,3.20676 h -1.32386 -1.32387 l -1.02258,-2.86009 -1.02258,-2.86009 h -4.96503 -4.96502 l -1.03847,2.86009 c -1.02066,2.81108 -1.05848,2.86009 -2.20671,2.86009 -0.64254,0 -1.16826,-0.0972 -1.16826,-0.21607 z m 11.50996,-13.47769 c -1.04781,-2.95543 -2.01888,-5.37351 -2.15794,-5.37351 -0.23127,0 -3.82458,9.88786 -3.81105,10.487 0.003,0.14301 1.77623,0.26001 3.93999,0.26001 h 3.9341 z"
       id="path14823" /><path
       style="fill:#3a6fa5;fill-opacity:1;stroke-width:0.346678"
       d="m 304.70052,211.19079 v -9.53364 h -3.98679 -3.9868 v -1.21337 -1.21337 h 9.18696 9.18696 v 1.21337 1.21337 h -3.98679 -3.9868 v 9.53364 9.53363 h -1.21337 -1.21337 z"
       id="path14862" /><path
       style="fill:#3a6fa5;fill-opacity:1;stroke-width:0.346678"
       d="m 315.26042,217.51766 c 0.64279,-1.76373 2.3909,-6.59839 3.88468,-10.74369 l 2.71597,-7.53692 1.78296,-0.003 c 1.37809,-0.003 1.83713,0.13445 2.02147,0.60336 0.84052,2.13808 7.46259,20.49967 7.46259,20.69219 0,0.13035 -0.57614,0.18858 -1.28031,0.1294 -1.26819,-0.10658 -1.28998,-0.13468 -2.30081,-2.96769 l -1.02049,-2.86009 h -4.95792 -4.95793 l -0.95965,2.94676 -0.95965,2.94676 h -1.29981 -1.29981 z m 12.3017,-5.37351 c -0.0559,-0.75947 -3.70813,-10.31366 -3.94259,-10.31366 -0.20488,0 -4.01187,9.94868 -4.01187,10.48408 0,0.0493 1.79406,0.0896 3.98679,0.0896 2.19274,0 3.97819,-0.117 3.96767,-0.26001 z"
       id="path14940" /><path
       style="fill:#3a6fa5;fill-opacity:1;stroke-width:0.346678"
       d="m 257.89903,210.0152 v -10.78479 l 3.90013,0.005 c 6.30372,0.009 9.92614,1.2819 12.07074,4.24245 3.09889,4.27789 2.47141,11.17014 -1.32002,14.49906 -2.41441,2.11988 -3.86882,2.52909 -9.53735,2.68343 l -5.1135,0.13923 z m 11.51948,7.32689 c 2.51016,-1.4161 3.73515,-3.70399 3.73241,-6.97091 -0.003,-3.31119 -0.52806,-4.84676 -2.21322,-6.47011 -1.73905,-1.67524 -3.40235,-2.22614 -7.52843,-2.49346 l -3.08349,-0.19977 v 8.76805 8.76804 l 3.63256,-0.18539 c 3.19793,-0.16322 3.85123,-0.30876 5.46017,-1.21645 z"
       id="path14979" /></g></svg>
